<svg width="76" height="30" viewBox="0 0 76 30" fill="none" xmlns="http://www.w3.org/2000/svg">
<circle cx="15" cy="15" r="15" fill="#111111"/>
<path d="M11.4347 23V8.45455H20.7528V10.6634H14.0696V14.6122H20.1136V16.821H14.0696V23H11.4347Z" fill="white"/>
<path d="M45.3878 8.45455V23H43.044L36.1903 13.0923H36.0696V23H33.4347V8.45455H35.7926L42.6392 18.3693H42.767V8.45455H45.3878ZM53.6879 23H48.7589V8.45455H53.7873C55.2314 8.45455 56.4719 8.74574 57.5089 9.32812C58.5505 9.90578 59.3507 10.7367 59.9094 11.821C60.4682 12.9053 60.7475 14.2027 60.7475 15.7131C60.7475 17.2282 60.4658 18.5303 59.9023 19.6193C59.3436 20.7083 58.5363 21.544 57.4805 22.1264C56.4293 22.7088 55.1651 23 53.6879 23ZM51.3938 20.7202H53.56C54.5733 20.7202 55.4184 20.5355 56.0955 20.1662C56.7726 19.7921 57.2816 19.2358 57.6225 18.4972C57.9634 17.7538 58.1339 16.8258 58.1339 15.7131C58.1339 14.6004 57.9634 13.6771 57.6225 12.9432C57.2816 12.2045 56.7773 11.6529 56.1097 11.2884C55.4469 10.919 54.623 10.7344 53.6381 10.7344H51.3938V20.7202ZM63.7511 23V8.45455H69.2056C70.323 8.45455 71.2605 8.64867 72.0181 9.03693C72.7804 9.42519 73.3557 9.9697 73.744 10.6705C74.137 11.3665 74.3335 12.1785 74.3335 13.1065C74.3335 14.0393 74.1346 14.849 73.7369 15.5355C73.3439 16.2173 72.7638 16.7453 71.9968 17.1193C71.2298 17.4886 70.2875 17.6733 69.1701 17.6733H65.2852V15.4858H68.815C69.4684 15.4858 70.0034 15.3958 70.4201 15.2159C70.8368 15.0312 71.1445 14.7637 71.3434 14.4134C71.547 14.0582 71.6488 13.6226 71.6488 13.1065C71.6488 12.5904 71.547 12.1501 71.3434 11.7855C71.1398 11.4162 70.8297 11.1368 70.413 10.9474C69.9963 10.7533 69.4589 10.6562 68.8008 10.6562H66.386V23H63.7511ZM71.2653 16.4091L74.8661 23H71.9258L68.3888 16.4091H71.2653Z" fill="#111111"/>
</svg>
